# xmcd
#
# Track frame offsets: 
#        150
#        16285
#        25723
#        40408
#        62293
#        77693
#        90390
#        107065
#        121938
#        138363
#        161220
#        176533
#
# Disc length: 2565 seconds
#
# Revision: 6
# Processed by: cddbd v1.5.2PL0 Copyright (c) Steve Scherf et al.
# Submitted via: ExactAudioCopyFreeDBPlugin 1.0
#
DISCID=8b0a030c
DTITLE=Various Artist - Didn't It Blow Your Mind!:  Soul Hits of the 
DTITLE='70s [Rhino series]
DYEAR=1991
DGENRE=SMB
TTITLE0=The Dramatics - Whatcha See is Whatcha Get
TTITLE1=Bill Withers - Ain't No Sunshine
TTITLE2=Laura Lee - Women's Love Rights
TTITLE3=The Dells - The Love We Had (Stays on My Mind)
TTITLE4=The Persuaders - Thin Line Between Love and Hate
TTITLE5=The 8th Day - You've Got to Crawl (Before You Walk)
TTITLE6=The Free Movement - I've Found Someone of My Own
TTITLE7=Isaac Hayes - Theme from "Shaft"
TTITLE8=Lou Rawls - A Natural Man
TTITLE9=The Chi-Lites - Have You Seen Her
TTITLE10=Donnie Elbert - Where Did Our Love Go
TTITLE11=The Staple Singers - Respect Yourself
EXTD=
EXTT0=The Dramatics
EXTT1=Bill Withers
EXTT2=Laura Lee
EXTT3=The Dells
EXTT4=The Persuaders
EXTT5=The 8th Day
EXTT6=The Free Movement
EXTT7=Issac Hayes
EXTT8=Lou Rawls
EXTT9=The Chi-Lites
EXTT10=Donnie Elbert
EXTT11=The Staple Singers
PLAYORDER=
